<svg width="24" height="24" viewBox="0 0 24 24" fill="none" xmlns="http://www.w3.org/2000/svg">
<path d="M0.333374 5.26195C0.333374 2.53997 2.53997 0.333374 5.26195 0.333374H18.4048C21.1268 0.333374 23.3334 2.53997 23.3334 5.26195V18.4048C23.3334 21.1268 21.1268 23.3334 18.4048 23.3334H5.26195C2.53997 23.3334 0.333374 21.1268 0.333374 18.4048V5.26195Z" fill="#5760E4"/>
<path fill-rule="evenodd" clip-rule="evenodd" d="M6.56958 6.55578C7.25231 6.55578 7.80578 6.00231 7.80578 5.31958C7.80578 4.63684 7.25231 4.08337 6.56958 4.08337C5.88684 4.08337 5.33337 4.63684 5.33337 5.31958C5.33337 6.00231 5.88684 6.55578 6.56958 6.55578ZM10.9845 4.08337C10.3018 4.08337 9.74832 4.63684 9.74832 5.31958C9.74832 6.00231 10.3018 6.55578 10.9845 6.55578H15.5858L11.8276 15.6997L9.34769 9.62083C9.08979 8.98868 8.36827 8.68528 7.73611 8.94318C7.10396 9.20107 6.80056 9.9226 7.05845 10.5548L10.6788 19.4289C10.8683 19.8936 11.32 20.1975 11.8218 20.1982C12.3236 20.1988 12.776 19.8961 12.9668 19.4319L18.5738 5.78952C18.7306 5.4082 18.6869 4.97385 18.4574 4.63137C18.2279 4.2889 17.8427 4.08337 17.4304 4.08337H10.9845Z" fill="white"/>
</svg>
